<?xml version="1.0" encoding="utf-8"?>
<!-- Generator: Adobe Illustrator 19.2.1, SVG Export Plug-In . SVG Version: 6.00 Build 0)  -->
<svg version="1.1" id="Layer_1" xmlns="http://www.w3.org/2000/svg" xmlns:xlink="http://www.w3.org/1999/xlink" x="0px" y="0px"
	 viewBox="0 0 485.9 299.8" style="enable-background:new 0 0 485.9 299.8;" xml:space="preserve">
<style type="text/css">
	.st0{fill:#FFFFFF;}
</style>
<path class="st0" d="M138.9,203.1c-27.8-30.7-29.6-72.2-0.6-105.4c-2-2.5-3.9-5.1-6-7.6c-10.7-12.3-21.5-24.6-32.4-36.8
	c-5.9-6.6-9.4-13.8-6.1-22.8c2.3-6.3,6.5-11,13.2-12.5c25.5-5.8,50.8-12.1,76.5-16.9c22.6-4.2,41.7,3.7,56.7,21
	c7.2,8.3,13.8,17.1,20.9,25.5c1.3,1.5,3.8,3,5.7,2.9c51.1-2.5,98.2,10.9,142.7,35c22.2,12,42.9,26.3,60.9,44.1
	c5.1,5,9.1,11,13.8,16.4c2.4,2.8,2.3,5.1,0.2,8.3c-9.4,13.6-21.4,24.5-34.5,34.4c-38.7,29.3-81.5,49.9-129.6,57.7
	c-16.8,2.7-34.1,2.7-51.2,3.5c-3.9,0.2-6.4,1.1-8.7,4.1c-6.6,8.4-13.4,16.6-20.3,24.7c-15.7,18.5-35.8,25.5-59.5,21.2
	c-24.2-4.5-48.3-9.6-72.4-14.6c-15.4-3.2-21.2-20.5-11-32.7C110.8,236,124.7,219.7,138.9,203.1z M372.8,150.2
	c0.1-23.6-18.9-42.7-42.3-42.7c-23.6-0.1-42.5,18.7-42.7,42.4c-0.2,23.7,18.9,43,42.6,43.1C353.7,193,372.8,173.7,372.8,150.2z"/>
<path class="st0" d="M47.4,179.4c-13.9-7-25.9-13.2-37.9-19.1c-4.5-2.2-7.9-4.9-7.8-10.4c0.1-5.3,3.6-7.8,7.8-9.9
	c12-6,24-12.1,37.6-19c-4.5-4-8.5-7.3-12.2-10.8c-3.2-3-4.1-6.8-2.2-10.9c1.9-4.2,5.2-6.2,9.9-6.2c14.3,0.1,28.7,0,43,0.1
	c9,0.1,13.4,7.2,9.6,15.4c-13.1,27.8-13.1,55.6,0.1,83.3c3.9,8.2-0.5,15.2-9.7,15.3c-14.3,0.1-28.7,0-43,0.1c-4.7,0-8-1.9-9.9-6.2
	c-1.8-4.2-1-7.9,2.3-10.9C38.7,186.6,42.7,183.4,47.4,179.4z"/>
<path class="st0" d="M329.8,129c11.6,0,20.9,9.3,20.8,20.9c0,11.5-9.5,21-21,20.9c-11.3-0.1-20.5-9.4-20.6-20.8
	C308.9,138.4,318.3,129,329.8,129z"/>
</svg>
