<svg xmlns="http://www.w3.org/2000/svg" xmlns:xlink="http://www.w3.org/1999/xlink" viewBox="0 0 375 240"><defs><style>.cls-1{fill:#fff;}.cls-2{fill:url(#linear-gradient);}.cls-3{fill:url(#linear-gradient-2);}.cls-4{fill:url(#linear-gradient-3);}.cls-5{fill:url(#linear-gradient-4);}.cls-6{fill:url(#linear-gradient-5);}.cls-7{fill:url(#linear-gradient-6);}</style><linearGradient id="linear-gradient" x1="79.48" y1="102.96" x2="79.48" y2="200.62" gradientUnits="userSpaceOnUse"><stop offset="0" stop-color="#ccc" stop-opacity="0"/><stop offset="1" stop-color="#ccc"/></linearGradient><linearGradient id="linear-gradient-2" x1="63.03" y1="180.61" x2="65.71" y2="180.56" gradientUnits="userSpaceOnUse"><stop offset="0" stop-color="#fff"/><stop offset="1" stop-color="#ccc"/></linearGradient><linearGradient id="linear-gradient-3" x1="335.3" y1="47.64" x2="337.34" y2="47.59" xlink:href="#linear-gradient-2"/><linearGradient id="linear-gradient-4" x1="100.87" y1="-348.29" x2="53" y2="-416.76" gradientTransform="translate(134.47 507.61) rotate(17.64)" xlink:href="#linear-gradient-2"/><linearGradient id="linear-gradient-5" x1="121.78" y1="-373.47" x2="115.72" y2="-324.99" gradientTransform="translate(134.47 507.61) rotate(17.64)" xlink:href="#linear-gradient-2"/><linearGradient id="linear-gradient-6" x1="347.86" y1="-11.57" x2="347.86" y2="62.89" xlink:href="#linear-gradient"/></defs><title>change-congratulations</title><g id="change-illustrations"><g id="change-congratulations"><path id="c-i_white" data-name="c-i white" class="cls-1" d="M62.52,84C41,84,28.95,102.25,28.95,121.43c0,38.13,33.57,56.36,33.57,56.36s33.57-18.23,33.57-56.36C96.08,102.25,84,84,62.52,84Z"/><path id="c-i_white-2" data-name="c-i white" class="cls-1" d="M70.76,239.57a6.73,6.73,0,0,0-2.44-4.77c-1.42-1-3.5-1.27-6.16-.75-3.41.66-5.89,0-7.39-2-4.33-5.74.94-21.17,7.3-33.69.71-1.39,1.43-2.77,2.14-4.12,3.49-6.65,6.79-12.92,5-15.26-.87-1.16-3.1-1.39-6.64-.68l-.2-1c4-.8,6.5-.45,7.64,1.06,2.13,2.85-1.16,9.09-5,16.33-.71,1.35-1.43,2.72-2.13,4.11-8,15.64-10.78,28.14-7.4,32.64,1.25,1.66,3.41,2.21,6.41,1.63s5.27-.26,6.93.92a7.67,7.67,0,0,1,2.85,5.45Z"/><path id="c-i_g-o" data-name="c-i g-o" class="cls-2" d="M96.08,121.51c0-18.57-11.32-36.25-31.55-37.36,6.83,2.79,10.62,19.64,10.62,37.29,0,34.59-10.25,52.92-12.29,56.23C66.46,175.58,96.08,157.32,96.08,121.51Z"/><path id="c-i_g-w" data-name="c-i g-w" class="cls-3" d="M66.89,182.66a40.61,40.61,0,0,0-4.37-4.87,40.61,40.61,0,0,0-4.37,4.87,12.42,12.42,0,0,0,8.74,0Z"/><path id="c-i_white-3" data-name="c-i white" class="cls-1" d="M343.14,131.67l-.85-.52c18.67-30.63,26.36-47,23.5-50.05-1.72-1.84-7.78,1.31-13.64,4.36-6.28,3.27-12.78,6.65-16.35,5.41a3.61,3.61,0,0,1-2.17-2c-3.18-7.05,1.12-17.26,4.91-26.27,2.88-6.84,5.59-13.29,3.58-15.77-1-1.27-3.43-1.55-7.13-.83l-.19-1c4.15-.8,6.8-.42,8.1,1.19,2.39,2.94-.31,9.36-3.43,16.79-3.71,8.82-7.91,18.81-4.92,25.47a2.61,2.61,0,0,0,1.58,1.48c3.17,1.09,9.75-2.33,15.56-5.35,6.76-3.52,12.59-6.55,14.83-4.16C369.86,84,362.86,99.31,343.14,131.67Z"/><path id="c-i_g-w-2" data-name="c-i g-w" class="cls-4" d="M338.23,49.2a31,31,0,0,0-3.33-3.71,31,31,0,0,0-3.33,3.71,9.47,9.47,0,0,0,6.66,0Z"/><path id="c-i_white-4" data-name="c-i white" class="cls-1" d="M296,137.88l.52-.12q1-.24,2.07-.42l.43-.08c.82-.14,1.64-.26,2.44-.35h.11c.74-.08,1.48-.14,2.21-.17l.5,0c.68,0,1.36,0,2,0h.25q1.15,0,2.26.16l.28,0q1,.11,1.9.29l.44.08c.7.14,1.39.31,2.07.5l-34.51-11-.43-.14-.48-.15-.3-.1-.22-.05c-.5-.14-1-.27-1.52-.38l-.39-.08c-.53-.11-1.07-.2-1.61-.28l-.28,0q-.77-.1-1.56-.16l-.29,0c-.56,0-1.13-.06-1.7-.06h-.4q-.84,0-1.69,0l-.43,0q-.86.05-1.74.14l-.4,0c-.61.07-1.22.15-1.83.25l-.27,0q-.9.15-1.82.34l-.25.05c-.64.14-1.28.29-1.93.46l-.38.1q-1,.25-1.92.54l-.42.13q-1,.3-2,.64l-.39.14c-.68.24-1.36.49-2.05.75l-.25.1q-1,.4-2.09.84l-.18.07c-.72.3-1.44.62-2.17,1l-.36.16q-1.06.48-2.13,1l-.41.2-2.17,1.09-.37.19q-1.13.59-2.26,1.2l-.22.12-2.33,1.3-.14.08-2.37,1.39-.35.21-2.32,1.41-.41.26-2.33,1.48-.4.26-2.41,1.57-.28.19-2.47,1.66-.13.09-2.51,1.74-.4.28-2.41,1.72-.51.37-2,1.48h0c-31.64,23.15-69,58.5-108.19,89.56h49.77c29.7-24.43,58-50.22,83.21-69.93l2.52-2,.86-.66,3.08-2.34,1-.74,2.36-1.76.94-.69,3-2.15,1-.68,2.26-1.59,1-.67,2.89-2,.89-.59,2.2-1.44,1-.62q1.41-.9,2.79-1.76l.82-.5,2.15-1.29,1-.56q1.36-.79,2.71-1.54l.72-.39,2.13-1.14.92-.48c.88-.45,1.76-.89,2.62-1.3l.61-.29q1.07-.5,2.12-1l.89-.39c.84-.36,1.67-.71,2.49-1l.52-.2q1.08-.41,2.13-.78l.85-.29c.74-.25,1.48-.48,2.22-.7l.28-.09h0C294.3,138.29,295.14,138.08,296,137.88Z"/><path id="c-i_g-w-3" data-name="c-i g-w" class="cls-5" d="M344.22,190.16a116.66,116.66,0,0,1-5-16.07c-5.41-22.18-14.21-33.47-25.73-36.83h0c-.68-.2-1.38-.36-2.08-.51l-.44-.08q-.94-.18-1.9-.29l-.28,0q-1.12-.12-2.26-.16h-.25c-.67,0-1.35,0-2,0l-.5,0c-.73,0-1.46.09-2.21.17h-.11c-.8.09-1.62.21-2.44.35l-.43.08q-1,.19-2.07.42l-.52.12c-.83.2-1.67.41-2.51.66,4.08,6,7.45,14.08,10,24.7,5,20.3,11.26,30.36,18.71,33.4a13.69,13.69,0,0,0,2.16.69l33.55,10.67C352.79,205.4,348.2,200,344.22,190.16Z"/><path id="c-i_g-w-4" data-name="c-i g-w" class="cls-6" d="M344.22,190.16c4,9.81,8.56,15.24,13.7,17.34l2.16.69c4.58,1,9.57-.34,14.92-3.43V160.13C363.89,172.25,353.57,183.34,344.22,190.16Z"/><path id="c-i_white-5" data-name="c-i white" class="cls-1" d="M360.49,2.53q0-1.27-.1-2.53h-51c-.06.83-.09,1.67-.09,2.51,0,29.06,25.58,43,25.59,43h0l.32-.19-.05.09c2.73-1.59,25.32-15.51,25.32-42.82Z"/><path id="c-i_g-o-2" data-name="c-i g-o" class="cls-7" d="M344.51,0q0,1.25,0,2.51c0,26.1-7.65,40.06-9.32,42.79,2.94-1.71,25.26-15.62,25.27-42.77q0-1.27-.1-2.53Z"/></g></g></svg>