<?xml version="1.0" encoding="UTF-8"?>
<svg width="375px" height="667px" viewBox="0 0 375 667" version="1.1" xmlns="http://www.w3.org/2000/svg" xmlns:xlink="http://www.w3.org/1999/xlink" style="background: #FFFFFF;">
    <!-- Generator: Sketch 47.1 (45422) - http://www.bohemiancoding.com/sketch -->
    <title>Marketplace Copy 9</title>
    <desc>Created with Sketch.</desc>
    <defs>
        <rect id="path-1" x="0" y="601" width="375" height="66"></rect>
        <filter x="-6.3%" y="-32.6%" width="112.5%" height="171.2%" filterUnits="objectBoundingBox" id="filter-2">
            <feOffset dx="0" dy="2" in="SourceAlpha" result="shadowOffsetOuter1"></feOffset>
            <feGaussianBlur stdDeviation="7.5" in="shadowOffsetOuter1" result="shadowBlurOuter1"></feGaussianBlur>
            <feColorMatrix values="0 0 0 0 0.602625425   0 0 0 0 0.602625425   0 0 0 0 0.602625425  0 0 0 0.5 0" type="matrix" in="shadowBlurOuter1"></feColorMatrix>
        </filter>
        <polygon id="path-3" points="0.879257895 0.374 24.856 0.374 24.856 14.7001 0.879257895 14.7001"></polygon>
        <polygon id="path-5" points="12.856 0.888561286 12.856 12 6.85391785 12 0.851835704 12 0.851835704 0.888561286 12.856 0.888561286"></polygon>
    </defs>
    <g id="Design" stroke="none" stroke-width="1" fill="none" fill-rule="evenodd">
        <g id="Marketplace-Copy-9">
            <g id="Group" transform="translate(342.000000, 35.000000)" fill="#19C3ED">
                <circle id="Oval-6" cx="2" cy="2" r="2"></circle>
                <circle id="Oval-6-Copy" cx="8" cy="2" r="2"></circle>
                <circle id="Oval-6-Copy-2" cx="14" cy="2" r="2"></circle>
            </g>
            <path d="M61.392,105 L61.392,79.476 L54.624,79.476 L47.136,97.908 L39.468,79.476 L32.916,79.476 L32.916,105 L37.668,105 L37.668,87.252 L45.012,105 L49.152,105 L56.496,87.108 L56.496,105 L61.392,105 Z M64.8548571,100.176 C64.8548571,97.008 67.1948571,95.244 70.1468571,94.812 L74.5028571,94.164 C75.5108571,94.02 75.8348571,93.516 75.8348571,92.904 C75.8348571,91.644 74.8628571,90.6 72.8468571,90.6 C70.7588571,90.6 69.6068571,91.932 69.4628571,93.48 L65.2148571,92.58 C65.5028571,89.808 68.0588571,86.748 72.8108571,86.748 C78.4268571,86.748 80.5148571,89.916 80.5148571,93.48 L80.5148571,102.192 C80.5148571,103.128 80.6228571,104.388 80.7308571,105 L76.3388571,105 C76.2308571,104.532 76.1588571,103.56 76.1588571,102.876 C75.2588571,104.28 73.5668571,105.504 70.9388571,105.504 C67.1588571,105.504 64.8548571,102.948 64.8548571,100.176 Z M71.9468571,101.94 C73.9628571,101.94 75.8348571,100.968 75.8348571,97.836 L75.8348571,97.044 L71.8388571,97.656 C70.6148571,97.836 69.6428571,98.52 69.6428571,99.888 C69.6428571,100.932 70.3988571,101.94 71.9468571,101.94 Z M95.2817143,87.216 C94.9217143,87.18 94.5617143,87.144 94.1657143,87.144 C92.6537143,87.144 90.2057143,87.576 89.1257143,89.916 L89.1257143,87.288 L84.4817143,87.288 L84.4817143,105 L89.2697143,105 L89.2697143,96.9 C89.2697143,93.084 91.3937143,91.896 93.8417143,91.896 C94.2737143,91.896 94.7417143,91.932 95.2817143,92.04 L95.2817143,87.216 Z M114.980571,87.288 L107.888571,94.74 L115.124571,105 L109.256571,105 L104.576571,98.232 L102.596571,100.32 L102.596571,105 L97.8085714,105 L97.8085714,78.936 L102.596571,78.936 L102.596571,93.876 L108.716571,87.288 L114.980571,87.288 Z M119.775429,94.128 L127.695429,94.128 C127.623429,92.364 126.471429,90.636 123.735429,90.636 C121.251429,90.636 119.883429,92.508 119.775429,94.128 Z M128.163429,98.736 L132.159429,99.924 C131.259429,102.984 128.451429,105.54 124.095429,105.54 C119.235429,105.54 114.951429,102.048 114.951429,96.072 C114.951429,90.42 119.127429,86.748 123.663429,86.748 C129.135429,86.748 132.411429,90.24 132.411429,95.928 C132.411429,96.612 132.339429,97.332 132.339429,97.404 L119.667429,97.404 C119.775429,99.744 121.755429,101.436 124.131429,101.436 C126.363429,101.436 127.587429,100.32 128.163429,98.736 Z M141.238286,81.996 L136.918286,81.996 L136.918286,84.48 C136.918286,86.064 136.054286,87.288 134.182286,87.288 L133.282286,87.288 L133.282286,91.536 L136.486286,91.536 L136.486286,99.78 C136.486286,103.2 138.646286,105.252 142.102286,105.252 C143.506286,105.252 144.370286,105 144.802286,104.82 L144.802286,100.86 C144.550286,100.932 143.902286,101.004 143.326286,101.004 C141.958286,101.004 141.238286,100.5 141.238286,98.952 L141.238286,91.536 L144.802286,91.536 L144.802286,87.288 L141.238286,87.288 L141.238286,81.996 Z M152.549143,111.84 L147.761143,111.84 L147.761143,87.288 L152.405143,87.288 L152.405143,89.448 C153.197143,88.08 155.177143,86.892 157.841143,86.892 C163.025143,86.892 166.013143,90.852 166.013143,96.108 C166.013143,101.472 162.665143,105.432 157.661143,105.432 C155.213143,105.432 153.413143,104.46 152.549143,103.272 L152.549143,111.84 Z M161.297143,96.144 C161.297143,93.012 159.353143,91.176 156.905143,91.176 C154.457143,91.176 152.477143,93.012 152.477143,96.144 C152.477143,99.276 154.457143,101.148 156.905143,101.148 C159.353143,101.148 161.297143,99.312 161.297143,96.144 Z M173.724,105 L173.724,78.936 L168.936,78.936 L168.936,105 L173.724,105 Z M176.790857,100.176 C176.790857,97.008 179.130857,95.244 182.082857,94.812 L186.438857,94.164 C187.446857,94.02 187.770857,93.516 187.770857,92.904 C187.770857,91.644 186.798857,90.6 184.782857,90.6 C182.694857,90.6 181.542857,91.932 181.398857,93.48 L177.150857,92.58 C177.438857,89.808 179.994857,86.748 184.746857,86.748 C190.362857,86.748 192.450857,89.916 192.450857,93.48 L192.450857,102.192 C192.450857,103.128 192.558857,104.388 192.666857,105 L188.274857,105 C188.166857,104.532 188.094857,103.56 188.094857,102.876 C187.194857,104.28 185.502857,105.504 182.874857,105.504 C179.094857,105.504 176.790857,102.948 176.790857,100.176 Z M183.882857,101.94 C185.898857,101.94 187.770857,100.968 187.770857,97.836 L187.770857,97.044 L183.774857,97.656 C182.550857,97.836 181.578857,98.52 181.578857,99.888 C181.578857,100.932 182.334857,101.94 183.882857,101.94 Z M204.301714,91.176 C206.677714,91.176 207.793714,92.688 208.225714,94.164 L212.509714,92.724 C211.753714,89.736 209.017714,86.748 204.193714,86.748 C199.045714,86.748 195.013714,90.672 195.013714,96.144 C195.013714,101.58 199.117714,105.54 204.337714,105.54 C209.053714,105.54 211.825714,102.516 212.617714,99.564 L208.405714,98.16 C208.009714,99.528 206.785714,101.148 204.337714,101.148 C201.889714,101.148 199.801714,99.348 199.801714,96.144 C199.801714,92.94 201.853714,91.176 204.301714,91.176 Z M218.600571,94.128 L226.520571,94.128 C226.448571,92.364 225.296571,90.636 222.560571,90.636 C220.076571,90.636 218.708571,92.508 218.600571,94.128 Z M226.988571,98.736 L230.984571,99.924 C230.084571,102.984 227.276571,105.54 222.920571,105.54 C218.060571,105.54 213.776571,102.048 213.776571,96.072 C213.776571,90.42 217.952571,86.748 222.488571,86.748 C227.960571,86.748 231.236571,90.24 231.236571,95.928 C231.236571,96.612 231.164571,97.332 231.164571,97.404 L218.492571,97.404 C218.600571,99.744 220.580571,101.436 222.956571,101.436 C225.188571,101.436 226.412571,100.32 226.988571,98.736 Z" id="Marketplace" fill="#2A2A2A"></path>
            <path d="M42.992,129.712 L44.8,129.712 L40.224,137.152 L40.224,142 L38.608,142 L38.608,137.184 L34.032,129.712 L35.904,129.712 L39.408,135.616 L39.44,135.616 L42.992,129.712 Z M47.808,142.176 C45.12,142.176 43.584,140.192 43.584,137.712 C43.584,135.216 45.12,133.232 47.808,133.232 C50.512,133.232 52.016,135.248 52.016,137.712 C52.016,140.16 50.512,142.176 47.808,142.176 Z M47.792,134.528 C46.016,134.528 45.12,136 45.12,137.712 C45.12,139.408 46.016,140.88 47.792,140.88 C49.568,140.88 50.48,139.408 50.48,137.712 C50.48,136 49.568,134.528 47.792,134.528 Z M61.296,133.408 L59.776,133.408 L59.776,138.528 C59.776,139.872 58.864,140.864 57.424,140.864 C56.096,140.864 55.472,139.984 55.472,138.864 L55.472,133.408 L53.952,133.408 L53.952,139.168 C53.952,140.976 55.12,142.176 56.976,142.176 C58.224,142.176 59.2,141.584 59.76,140.736 L59.792,140.736 L59.808,142 L61.296,142 L61.296,133.408 Z M63.824,142 L65.344,142 L65.344,136.784 C65.344,135.728 66.064,134.72 67.488,134.72 C67.84,134.72 68.144,134.784 68.288,134.832 L68.288,133.344 C68.096,133.28 67.872,133.232 67.568,133.232 C66.736,133.232 65.936,133.632 65.36,134.704 L65.328,134.704 L65.296,133.408 L63.824,133.408 L63.824,142 Z M77.488,142.176 C74.8,142.176 73.264,140.192 73.264,137.712 C73.264,135.216 74.8,133.232 77.488,133.232 C80.192,133.232 81.696,135.248 81.696,137.712 C81.696,140.16 80.192,142.176 77.488,142.176 Z M77.472,134.528 C75.696,134.528 74.8,136 74.8,137.712 C74.8,139.408 75.696,140.88 77.472,140.88 C79.248,140.88 80.16,139.408 80.16,137.712 C80.16,136 79.248,134.528 77.472,134.528 Z M83.664,142 L85.184,142 L85.184,136.88 C85.184,135.536 86.096,134.544 87.536,134.544 C88.832,134.544 89.488,135.424 89.488,136.544 L89.488,142 L91.008,142 L91.008,136.24 C91.008,134.432 89.84,133.232 87.984,133.232 C86.704,133.232 85.744,133.808 85.2,134.672 L85.168,134.672 L85.136,133.408 L83.664,133.408 L83.664,142 Z M94.48,137.04 L99.248,137.04 C99.152,135.632 98.448,134.512 96.928,134.512 C95.424,134.512 94.624,135.6 94.48,137.04 Z M99.376,139.84 L100.432,140.784 C99.664,141.68 98.56,142.176 97.184,142.176 C94.48,142.176 92.944,140.4 92.944,137.696 C92.944,135.104 94.48,133.232 96.96,133.232 C99.424,133.232 100.752,135.072 100.752,137.424 C100.752,137.68 100.736,138.08 100.704,138.304 L94.496,138.304 C94.656,139.936 95.6,140.88 97.2,140.88 C98.144,140.88 98.864,140.528 99.376,139.84 Z M109.376,142.176 C111.728,142.176 112.976,141.056 112.976,139.488 C112.976,137.776 111.456,137.328 109.872,136.976 C108.384,136.656 107.616,136.48 107.616,135.68 C107.616,135.024 108.224,134.512 109.424,134.512 C110.352,134.512 111.168,134.832 111.904,135.504 L112.816,134.464 C111.92,133.648 110.848,133.232 109.472,133.232 C107.232,133.232 106.08,134.368 106.08,135.84 C106.08,137.504 107.52,138 109.136,138.352 C110.576,138.656 111.44,138.848 111.44,139.664 C111.44,140.4 110.784,140.896 109.424,140.896 C108.4,140.896 107.456,140.56 106.704,139.84 L105.776,140.88 C106.672,141.728 107.856,142.176 109.376,142.176 Z M113.712,134.672 L115.424,134.672 L115.424,139.76 C115.424,141.28 116.176,142.176 117.808,142.176 C118.288,142.176 118.672,142.112 119.008,142.032 L119.008,140.8 C118.832,140.832 118.624,140.864 118.336,140.864 C117.216,140.864 116.944,140.4 116.944,139.376 L116.944,134.672 L119.008,134.672 L119.008,133.408 L116.944,133.408 L116.944,130.688 L115.424,130.688 L115.424,133.408 L113.712,133.408 L113.712,134.672 Z M124.224,142.176 C121.536,142.176 120,140.192 120,137.712 C120,135.216 121.536,133.232 124.224,133.232 C126.928,133.232 128.432,135.248 128.432,137.712 C128.432,140.16 126.928,142.176 124.224,142.176 Z M124.208,134.528 C122.432,134.528 121.536,136 121.536,137.712 C121.536,139.408 122.432,140.88 124.208,140.88 C125.984,140.88 126.896,139.408 126.896,137.712 C126.896,136 125.984,134.528 124.208,134.528 Z M134.784,142.176 C133.552,142.176 132.608,141.68 131.952,140.752 L131.92,140.752 L131.92,144.928 L130.4,144.928 L130.4,133.408 L131.872,133.408 L131.904,134.768 L131.936,134.768 C132.592,133.792 133.648,133.232 134.848,133.232 C137.232,133.232 138.656,135.168 138.656,137.664 C138.656,140.128 137.184,142.176 134.784,142.176 Z M134.464,140.848 C136.208,140.848 137.12,139.408 137.12,137.696 C137.12,136.08 136.304,134.56 134.48,134.56 C132.768,134.56 131.872,136.032 131.872,137.744 C131.872,139.504 132.8,140.848 134.464,140.848 Z M147.392,142.176 C149.744,142.176 150.992,141.056 150.992,139.488 C150.992,137.776 149.472,137.328 147.888,136.976 C146.4,136.656 145.632,136.48 145.632,135.68 C145.632,135.024 146.24,134.512 147.44,134.512 C148.368,134.512 149.184,134.832 149.92,135.504 L150.832,134.464 C149.936,133.648 148.864,133.232 147.488,133.232 C145.248,133.232 144.096,134.368 144.096,135.84 C144.096,137.504 145.536,138 147.152,138.352 C148.592,138.656 149.456,138.848 149.456,139.664 C149.456,140.4 148.8,140.896 147.44,140.896 C146.416,140.896 145.472,140.56 144.72,139.84 L143.792,140.88 C144.688,141.728 145.872,142.176 147.392,142.176 Z M152.832,142 L154.352,142 L154.352,136.88 C154.352,135.536 155.264,134.544 156.704,134.544 C158,134.544 158.656,135.424 158.656,136.544 L158.656,142 L160.176,142 L160.176,136.24 C160.176,134.432 159.008,133.232 157.152,133.232 C155.92,133.232 154.96,133.76 154.384,134.64 L154.352,134.64 L154.352,129.712 L152.832,129.712 L152.832,142 Z M166.336,142.176 C163.648,142.176 162.112,140.192 162.112,137.712 C162.112,135.216 163.648,133.232 166.336,133.232 C169.04,133.232 170.544,135.248 170.544,137.712 C170.544,140.16 169.04,142.176 166.336,142.176 Z M166.32,134.528 C164.544,134.528 163.648,136 163.648,137.712 C163.648,139.408 164.544,140.88 166.32,140.88 C168.096,140.88 169.008,139.408 169.008,137.712 C169.008,136 168.096,134.528 166.32,134.528 Z M176.896,142.176 C175.664,142.176 174.72,141.68 174.064,140.752 L174.032,140.752 L174.032,144.928 L172.512,144.928 L172.512,133.408 L173.984,133.408 L174.016,134.768 L174.048,134.768 C174.704,133.792 175.76,133.232 176.96,133.232 C179.344,133.232 180.768,135.168 180.768,137.664 C180.768,140.128 179.296,142.176 176.896,142.176 Z M176.576,140.848 C178.32,140.848 179.232,139.408 179.232,137.696 C179.232,136.08 178.416,134.56 176.592,134.56 C174.88,134.56 173.984,136.032 173.984,137.744 C173.984,139.504 174.912,140.848 176.576,140.848 Z M187.424,142 L188.944,142 L188.944,134.672 L191.008,134.672 L191.008,133.408 L188.944,133.408 L188.944,132.16 C188.944,131.248 189.312,130.848 190.304,130.848 C190.576,130.848 190.848,130.88 191.008,130.928 L191.008,129.664 C190.704,129.584 190.384,129.536 190,129.536 C188.368,129.536 187.424,130.384 187.424,131.968 L187.424,133.408 L185.712,133.408 L185.712,134.672 L187.424,134.672 L187.424,142 Z M196.112,142.176 C193.424,142.176 191.888,140.192 191.888,137.712 C191.888,135.216 193.424,133.232 196.112,133.232 C198.816,133.232 200.32,135.248 200.32,137.712 C200.32,140.16 198.816,142.176 196.112,142.176 Z M196.096,134.528 C194.32,134.528 193.424,136 193.424,137.712 C193.424,139.408 194.32,140.88 196.096,140.88 C197.872,140.88 198.784,139.408 198.784,137.712 C198.784,136 197.872,134.528 196.096,134.528 Z M202.288,142 L203.808,142 L203.808,136.784 C203.808,135.728 204.528,134.72 205.952,134.72 C206.304,134.72 206.608,134.784 206.752,134.832 L206.752,133.344 C206.56,133.28 206.336,133.232 206.032,133.232 C205.2,133.232 204.4,133.632 203.824,134.704 L203.792,134.704 L203.76,133.408 L202.288,133.408 L202.288,142 Z M35.984,164 L35.984,156.672 L34.272,156.672 L34.272,155.408 L35.984,155.408 L35.984,153.888 C35.984,152.384 36.848,151.536 38.432,151.536 C38.8,151.536 39.12,151.584 39.392,151.664 L39.392,152.912 C39.248,152.88 38.992,152.848 38.752,152.848 C37.84,152.848 37.504,153.248 37.504,154.08 L37.504,155.408 L42.448,155.408 L42.448,164 L40.928,164 L40.928,156.672 L37.504,156.672 L37.504,164 L35.984,164 Z M40.864,153.36 L40.864,151.712 L42.512,151.712 L42.512,153.36 L40.864,153.36 Z M44.976,164 L46.496,164 L46.496,158.88 C46.496,157.536 47.408,156.544 48.848,156.544 C50.144,156.544 50.8,157.424 50.8,158.544 L50.8,164 L52.32,164 L52.32,158.24 C52.32,156.432 51.152,155.232 49.296,155.232 C48.016,155.232 47.056,155.808 46.512,156.672 L46.48,156.672 L46.448,155.408 L44.976,155.408 L44.976,164 Z M61.248,164 L59.76,164 L59.728,162.752 L59.696,162.752 C59.216,163.6 58.336,164.176 57.104,164.176 C55.424,164.176 54.336,163.104 54.336,161.584 C54.336,160.464 54.912,159.712 56,159.36 C56.944,159.056 58.336,158.992 59.744,158.944 L59.744,158.176 C59.744,157.296 59.136,156.512 57.84,156.512 C56.752,156.512 56.128,157.024 55.856,157.808 L54.592,157.2 C55.088,155.904 56.32,155.232 57.888,155.232 C59.936,155.232 61.248,156.304 61.248,158.176 L61.248,164 Z M57.456,162.896 C58.848,162.896 59.744,161.84 59.744,160.608 L59.744,160.112 C59.168,160.128 58.272,160.192 57.552,160.288 C56.576,160.416 55.856,160.688 55.856,161.568 C55.856,162.368 56.464,162.896 57.456,162.896 Z M63.744,164 L65.264,164 L65.264,158.88 C65.264,157.536 66.176,156.544 67.616,156.544 C68.912,156.544 69.568,157.424 69.568,158.544 L69.568,164 L71.088,164 L71.088,158.24 C71.088,156.432 69.92,155.232 68.064,155.232 C66.784,155.232 65.824,155.808 65.28,156.672 L65.248,156.672 L65.216,155.408 L63.744,155.408 L63.744,164 Z M77.216,164.176 C78.88,164.176 80.096,163.376 80.704,162.176 L79.504,161.488 C79.088,162.304 78.4,162.88 77.264,162.88 C75.456,162.88 74.576,161.44 74.576,159.712 C74.576,157.936 75.488,156.528 77.168,156.528 C78.256,156.528 78.944,157.136 79.376,157.968 L80.64,157.248 C79.984,156.016 78.832,155.232 77.2,155.232 C74.56,155.232 73.04,157.2 73.04,159.744 C73.04,162.272 74.576,164.176 77.216,164.176 Z M82.112,153.36 L83.76,153.36 L83.76,151.712 L82.112,151.712 L82.112,153.36 Z M83.696,164 L83.696,155.408 L82.176,155.408 L82.176,164 L83.696,164 Z M92.656,164 L91.168,164 L91.136,162.752 L91.104,162.752 C90.624,163.6 89.744,164.176 88.512,164.176 C86.832,164.176 85.744,163.104 85.744,161.584 C85.744,160.464 86.32,159.712 87.408,159.36 C88.352,159.056 89.744,158.992 91.152,158.944 L91.152,158.176 C91.152,157.296 90.544,156.512 89.248,156.512 C88.16,156.512 87.536,157.024 87.264,157.808 L86,157.2 C86.496,155.904 87.728,155.232 89.296,155.232 C91.344,155.232 92.656,156.304 92.656,158.176 L92.656,164 Z M88.864,162.896 C90.256,162.896 91.152,161.84 91.152,160.608 L91.152,160.112 C90.576,160.128 89.68,160.192 88.96,160.288 C87.984,160.416 87.264,160.688 87.264,161.568 C87.264,162.368 87.872,162.896 88.864,162.896 Z M96.672,164 L96.672,151.712 L95.152,151.712 L95.152,164 L96.672,164 Z M105.92,164.176 C108.272,164.176 109.52,163.056 109.52,161.488 C109.52,159.776 108,159.328 106.416,158.976 C104.928,158.656 104.16,158.48 104.16,157.68 C104.16,157.024 104.768,156.512 105.968,156.512 C106.896,156.512 107.712,156.832 108.448,157.504 L109.36,156.464 C108.464,155.648 107.392,155.232 106.016,155.232 C103.776,155.232 102.624,156.368 102.624,157.84 C102.624,159.504 104.064,160 105.68,160.352 C107.12,160.656 107.984,160.848 107.984,161.664 C107.984,162.4 107.328,162.896 105.968,162.896 C104.944,162.896 104,162.56 103.248,161.84 L102.32,162.88 C103.216,163.728 104.4,164.176 105.92,164.176 Z M112.336,159.04 L117.104,159.04 C117.008,157.632 116.304,156.512 114.784,156.512 C113.28,156.512 112.48,157.6 112.336,159.04 Z M117.232,161.84 L118.288,162.784 C117.52,163.68 116.416,164.176 115.04,164.176 C112.336,164.176 110.8,162.4 110.8,159.696 C110.8,157.104 112.336,155.232 114.816,155.232 C117.28,155.232 118.608,157.072 118.608,159.424 C118.608,159.68 118.592,160.08 118.56,160.304 L112.352,160.304 C112.512,161.936 113.456,162.88 115.056,162.88 C116,162.88 116.72,162.528 117.232,161.84 Z M120.512,164 L122.032,164 L122.032,158.784 C122.032,157.728 122.752,156.72 124.176,156.72 C124.528,156.72 124.832,156.784 124.976,156.832 L124.976,155.344 C124.784,155.28 124.56,155.232 124.256,155.232 C123.424,155.232 122.624,155.632 122.048,156.704 L122.016,156.704 L121.984,155.408 L120.512,155.408 L120.512,164 Z M132.448,155.408 L129.888,162.256 L129.856,162.256 L127.328,155.408 L125.664,155.408 L129.04,164 L130.656,164 L134.048,155.408 L132.448,155.408 Z M135.456,153.36 L137.104,153.36 L137.104,151.712 L135.456,151.712 L135.456,153.36 Z M137.04,164 L137.04,155.408 L135.52,155.408 L135.52,164 L137.04,164 Z M143.2,164.176 C144.864,164.176 146.08,163.376 146.688,162.176 L145.488,161.488 C145.072,162.304 144.384,162.88 143.248,162.88 C141.44,162.88 140.56,161.44 140.56,159.712 C140.56,157.936 141.472,156.528 143.152,156.528 C144.24,156.528 144.928,157.136 145.36,157.968 L146.624,157.248 C145.968,156.016 144.816,155.232 143.184,155.232 C140.544,155.232 139.024,157.2 139.024,159.744 C139.024,162.272 140.56,164.176 143.2,164.176 Z M149.136,159.04 L153.904,159.04 C153.808,157.632 153.104,156.512 151.584,156.512 C150.08,156.512 149.28,157.6 149.136,159.04 Z M154.032,161.84 L155.088,162.784 C154.32,163.68 153.216,164.176 151.84,164.176 C149.136,164.176 147.6,162.4 147.6,159.696 C147.6,157.104 149.136,155.232 151.616,155.232 C154.08,155.232 155.408,157.072 155.408,159.424 C155.408,159.68 155.392,160.08 155.36,160.304 L149.152,160.304 C149.312,161.936 150.256,162.88 151.856,162.88 C152.8,162.88 153.52,162.528 154.032,161.84 Z M160.112,164.176 C162.464,164.176 163.712,163.056 163.712,161.488 C163.712,159.776 162.192,159.328 160.608,158.976 C159.12,158.656 158.352,158.48 158.352,157.68 C158.352,157.024 158.96,156.512 160.16,156.512 C161.088,156.512 161.904,156.832 162.64,157.504 L163.552,156.464 C162.656,155.648 161.584,155.232 160.208,155.232 C157.968,155.232 156.816,156.368 156.816,157.84 C156.816,159.504 158.256,160 159.872,160.352 C161.312,160.656 162.176,160.848 162.176,161.664 C162.176,162.4 161.52,162.896 160.16,162.896 C159.136,162.896 158.192,162.56 157.44,161.84 L156.512,162.88 C157.408,163.728 158.592,164.176 160.112,164.176 Z M165.712,164 L167.472,164 L167.472,162.24 L165.712,162.24 L165.712,164 Z" id="Your-one-stop-shop-f" fill="#A1A1A1"></path>
            <g id="Rectangle-8-Copy-5">
                <use fill="black" fill-opacity="1" filter="url(#filter-2)" xlink:href="#path-1"></use>
                <use fill="#FFFFFF" fill-rule="evenodd" xlink:href="#path-1"></use>
            </g>
            <path d="M136.744,659 L138.364,659 L140.404,650.6 L139.156,650.6 L137.572,657.752 L135.904,650.6 L134.332,650.6 L132.616,657.692 L130.972,650.6 L129.724,650.6 L131.764,659 L133.384,659 L135.064,651.98 L136.744,659 Z M144.748,656.228 L143.248,656.348 C142.552,656.408 142.048,656.744 142.048,657.296 C142.048,657.788 142.456,658.16 143.008,658.16 L143.128,658.16 C143.848,658.16 144.748,657.56 144.748,656.84 L144.748,656.228 Z M145.948,659 L144.868,659 C144.808,658.7 144.808,658.1 144.808,658.04 C144.568,658.58 143.848,659.12 142.888,659.12 C141.748,659.12 140.908,658.364 140.908,657.344 C140.908,655.976 142.12,655.568 143.092,655.484 L144.748,655.352 L144.748,655.16 C144.748,654.32 144.268,653.84 143.488,653.84 L143.428,653.84 C142.78,653.84 142.24,654.14 142.168,654.74 L141.028,654.74 C141.1,653.636 142.096,652.88 143.452,652.88 C145.048,652.88 145.888,653.936 145.888,655.16 L145.888,657.68 C145.888,658.04 145.888,658.58 145.948,659 Z M147.628,659 L148.768,659 L148.768,650.6 L147.628,650.6 L147.628,659 Z M150.568,659 L151.708,659 L151.708,650.6 L150.568,650.6 L150.568,659 Z M155.884,653.84 C155.272,653.84 154.576,654.212 154.36,655.28 L157.348,655.28 C157.3,654.236 156.676,653.84 156.004,653.84 L155.884,653.84 Z M158.476,657.224 C158.284,658.46 157.228,659.12 155.98,659.12 C154.492,659.12 153.148,658.088 153.148,655.988 C153.148,653.912 154.528,652.88 155.944,652.88 C157.504,652.88 158.488,653.96 158.488,655.52 L158.488,656.18 L154.288,656.18 C154.36,657.548 155.236,658.16 155.98,658.16 L156.052,658.16 C156.652,658.16 157.216,657.86 157.336,657.224 L158.476,657.224 Z M163.216,657.98 L162.076,657.98 C161.716,657.98 161.596,657.86 161.596,657.5 L161.596,653.984 L163.036,653.984 L163.036,653 L161.596,653 L161.596,651.056 L160.456,651.056 L160.456,653 L159.136,653 L159.136,653.984 L160.456,653.984 L160.456,657.68 C160.456,658.52 160.936,659 161.776,659 L163.216,659 L163.216,657.98 Z" id="Wallet-Copy" fill="#A1A1A1"></path>
            <path d="M217.16,654.8 C217.16,653 218.12,651.56 219.86,651.56 L219.98,651.56 C221.06,651.56 222.008,652.172 222.08,653.24 L223.28,653.24 C223.196,651.536 221.72,650.48 219.92,650.48 C217.46,650.48 215.96,652.34 215.96,654.8 C215.96,657.26 217.46,659.12 219.92,659.12 C221.72,659.12 223.196,658.064 223.28,656.36 L222.08,656.36 C222.008,657.428 221.06,658.04 219.98,658.04 L219.86,658.04 C218.12,658.04 217.16,656.6 217.16,654.8 Z M228.164,656.228 L226.664,656.348 C225.968,656.408 225.464,656.744 225.464,657.296 C225.464,657.788 225.872,658.16 226.424,658.16 L226.544,658.16 C227.264,658.16 228.164,657.56 228.164,656.84 L228.164,656.228 Z M229.364,659 L228.284,659 C228.224,658.7 228.224,658.1 228.224,658.04 C227.984,658.58 227.264,659.12 226.304,659.12 C225.164,659.12 224.324,658.364 224.324,657.344 C224.324,655.976 225.536,655.568 226.508,655.484 L228.164,655.352 L228.164,655.16 C228.164,654.32 227.684,653.84 226.904,653.84 L226.844,653.84 C226.196,653.84 225.656,654.14 225.584,654.74 L224.444,654.74 C224.516,653.636 225.512,652.88 226.868,652.88 C228.464,652.88 229.304,653.936 229.304,655.16 L229.304,657.68 C229.304,658.04 229.304,658.58 229.364,659 Z M231.044,659 L232.184,659 L232.184,655.964 C232.184,654.764 232.844,654.044 233.924,654.044 L234.404,654.044 L234.404,652.94 L233.864,652.94 C233.084,652.94 232.364,653.42 232.124,654.32 L232.124,653 L231.044,653 L231.044,659 Z M237.908,658.16 C238.748,658.16 239.588,657.44 239.588,656 C239.588,654.56 238.748,653.84 237.908,653.84 L237.788,653.84 C236.888,653.84 236.168,654.56 236.168,656 C236.168,657.44 236.888,658.16 237.788,658.16 L237.908,658.16 Z M237.608,659.12 C236.108,659.12 235.028,657.98 235.028,656 C235.028,654.02 236.228,652.88 237.728,652.88 C238.568,652.88 239.288,653.3 239.588,653.84 L239.588,650.6 L240.728,650.6 L240.728,659 L239.588,659 L239.588,658.16 C239.288,658.7 238.448,659.12 237.608,659.12 Z" id="Card-Copy-3" fill="#A1A1A1"></path>
            <path d="M43.596,650.48 C45.876,650.48 47.556,652.1 47.556,654.8 C47.556,657.5 45.876,659.12 43.596,659.12 C41.316,659.12 39.636,657.5 39.636,654.8 C39.636,652.1 41.316,650.48 43.596,650.48 Z M43.536,658.04 L43.656,658.04 C45.216,658.04 46.356,656.84 46.356,654.8 C46.356,652.76 45.216,651.56 43.656,651.56 L43.536,651.56 C41.976,651.56 40.836,652.76 40.836,654.8 C40.836,656.84 41.976,658.04 43.536,658.04 Z M51.936,659 L54.156,653 L52.992,653 L51.252,657.884 L49.512,653 L48.336,653 L50.556,659 L51.936,659 Z M57.48,653.84 C56.868,653.84 56.172,654.212 55.956,655.28 L58.944,655.28 C58.896,654.236 58.272,653.84 57.6,653.84 L57.48,653.84 Z M60.072,657.224 C59.88,658.46 58.824,659.12 57.576,659.12 C56.088,659.12 54.744,658.088 54.744,655.988 C54.744,653.912 56.124,652.88 57.54,652.88 C59.1,652.88 60.084,653.96 60.084,655.52 L60.084,656.18 L55.884,656.18 C55.956,657.548 56.832,658.16 57.576,658.16 L57.648,658.16 C58.248,658.16 58.812,657.86 58.932,657.224 L60.072,657.224 Z M61.524,659 L62.664,659 L62.664,655.964 C62.664,654.764 63.324,654.044 64.404,654.044 L64.884,654.044 L64.884,652.94 L64.344,652.94 C63.564,652.94 62.844,653.42 62.604,654.32 L62.604,653 L61.524,653 L61.524,659 Z M68.928,659 L71.148,653 L69.984,653 L68.244,657.884 L66.504,653 L65.328,653 L67.548,659 L68.928,659 Z M72.18,651.92 L73.44,651.92 L73.44,650.6 L72.18,650.6 L72.18,651.92 Z M72.24,659 L73.38,659 L73.38,653 L72.24,653 L72.24,659 Z M77.556,653.84 C76.944,653.84 76.248,654.212 76.032,655.28 L79.02,655.28 C78.972,654.236 78.348,653.84 77.676,653.84 L77.556,653.84 Z M80.148,657.224 C79.956,658.46 78.9,659.12 77.652,659.12 C76.164,659.12 74.82,658.088 74.82,655.988 C74.82,653.912 76.2,652.88 77.616,652.88 C79.176,652.88 80.16,653.96 80.16,655.52 L80.16,656.18 L75.96,656.18 C76.032,657.548 76.908,658.16 77.652,658.16 L77.724,658.16 C78.324,658.16 78.888,657.86 79.008,657.224 L80.148,657.224 Z M86.592,659 L87.852,659 L89.712,653 L88.512,653 L87.252,657.74 L85.872,653 L84.672,653 L83.352,657.74 L82.032,653 L80.832,653 L82.692,659 L83.952,659 L85.272,654.308 L86.592,659 Z" id="Overview-Copy" fill="#A1A1A1"></path>
            <path d="M281.232,659 L282.768,659 L285.24,651.62 L285.24,659 L286.44,659 L286.44,650.6 L284.46,650.6 L282,657.872 L279.492,650.6 L277.5,650.6 L277.5,659 L278.7,659 L278.7,651.656 L281.232,659 Z M291.864,656.228 L290.364,656.348 C289.668,656.408 289.164,656.744 289.164,657.296 C289.164,657.788 289.572,658.16 290.124,658.16 L290.244,658.16 C290.964,658.16 291.864,657.56 291.864,656.84 L291.864,656.228 Z M293.064,659 L291.984,659 C291.924,658.7 291.924,658.1 291.924,658.04 C291.684,658.58 290.964,659.12 290.004,659.12 C288.864,659.12 288.024,658.364 288.024,657.344 C288.024,655.976 289.236,655.568 290.208,655.484 L291.864,655.352 L291.864,655.16 C291.864,654.32 291.384,653.84 290.604,653.84 L290.544,653.84 C289.896,653.84 289.356,654.14 289.284,654.74 L288.144,654.74 C288.216,653.636 289.212,652.88 290.568,652.88 C292.164,652.88 293.004,653.936 293.004,655.16 L293.004,657.68 C293.004,658.04 293.004,658.58 293.064,659 Z M294.744,659 L295.884,659 L295.884,655.964 C295.884,654.764 296.544,654.044 297.624,654.044 L298.104,654.044 L298.104,652.94 L297.564,652.94 C296.784,652.94 296.064,653.42 295.824,654.32 L295.824,653 L294.744,653 L294.744,659 Z M303.252,659 L304.656,659 L302.04,655.388 L304.536,653 L303.036,653 L300.396,655.592 L300.396,650.6 L299.256,650.6 L299.256,659 L300.396,659 L300.396,656.972 L301.224,656.168 L303.252,659 Z M307.704,653.84 C307.092,653.84 306.396,654.212 306.18,655.28 L309.168,655.28 C309.12,654.236 308.496,653.84 307.824,653.84 L307.704,653.84 Z M310.296,657.224 C310.104,658.46 309.048,659.12 307.8,659.12 C306.312,659.12 304.968,658.088 304.968,655.988 C304.968,653.912 306.348,652.88 307.764,652.88 C309.324,652.88 310.308,653.96 310.308,655.52 L310.308,656.18 L306.108,656.18 C306.18,657.548 307.056,658.16 307.8,658.16 L307.872,658.16 C308.472,658.16 309.036,657.86 309.156,657.224 L310.296,657.224 Z M315.036,657.98 L313.896,657.98 C313.536,657.98 313.416,657.86 313.416,657.5 L313.416,653.984 L314.856,653.984 L314.856,653 L313.416,653 L313.416,651.056 L312.276,651.056 L312.276,653 L310.956,653 L310.956,653.984 L312.276,653.984 L312.276,657.68 C312.276,658.52 312.756,659 313.596,659 L315.036,659 L315.036,657.98 Z M319.092,653.84 C318.252,653.84 317.412,654.56 317.412,656 C317.412,657.44 318.252,658.16 319.092,658.16 L319.212,658.16 C320.112,658.16 320.832,657.44 320.832,656 C320.832,654.56 320.112,653.84 319.212,653.84 L319.092,653.84 Z M319.392,652.88 C320.892,652.88 321.972,654.02 321.972,656 C321.972,657.98 320.772,659.12 319.272,659.12 C318.432,659.12 317.712,658.7 317.412,658.16 L317.412,661.4 L316.272,661.4 L316.272,653 L317.412,653 L317.412,653.84 C317.712,653.3 318.552,652.88 319.392,652.88 Z M323.412,659 L324.552,659 L324.552,650.6 L323.412,650.6 L323.412,659 Z M329.796,656.228 L328.296,656.348 C327.6,656.408 327.096,656.744 327.096,657.296 C327.096,657.788 327.504,658.16 328.056,658.16 L328.176,658.16 C328.896,658.16 329.796,657.56 329.796,656.84 L329.796,656.228 Z M330.996,659 L329.916,659 C329.856,658.7 329.856,658.1 329.856,658.04 C329.616,658.58 328.896,659.12 327.936,659.12 C326.796,659.12 325.956,658.364 325.956,657.344 C325.956,655.976 327.168,655.568 328.14,655.484 L329.796,655.352 L329.796,655.16 C329.796,654.32 329.316,653.84 328.536,653.84 L328.476,653.84 C327.828,653.84 327.288,654.14 327.216,654.74 L326.076,654.74 C326.148,653.636 327.144,652.88 328.5,652.88 C330.096,652.88 330.936,653.936 330.936,655.16 L330.936,657.68 C330.936,658.04 330.936,658.58 330.996,659 Z M335.196,659.12 C336.564,659.12 337.536,658.316 337.656,657.02 L336.516,657.02 C336.408,657.68 335.928,658.16 335.256,658.16 L335.136,658.16 C333.996,658.16 333.456,657.14 333.456,656 C333.456,654.86 333.996,653.84 335.136,653.84 L335.256,653.84 C335.928,653.84 336.408,654.32 336.516,654.98 L337.656,654.98 C337.536,653.684 336.564,652.88 335.196,652.88 C333.348,652.88 332.316,654.236 332.316,656 C332.316,657.764 333.348,659.12 335.196,659.12 Z M341.436,653.84 C340.824,653.84 340.128,654.212 339.912,655.28 L342.9,655.28 C342.852,654.236 342.228,653.84 341.556,653.84 L341.436,653.84 Z M344.028,657.224 C343.836,658.46 342.78,659.12 341.532,659.12 C340.044,659.12 338.7,658.088 338.7,655.988 C338.7,653.912 340.08,652.88 341.496,652.88 C343.056,652.88 344.04,653.96 344.04,655.52 L344.04,656.18 L339.84,656.18 C339.912,657.548 340.788,658.16 341.532,658.16 L341.604,658.16 C342.204,658.16 342.768,657.86 342.888,657.224 L344.028,657.224 Z" id="Marketplace-Copy-3" fill="#19C3ED"></path>
            <g id="Page-1" transform="translate(51.000000, 610.000000)">
                <g id="Group-3" transform="translate(3.000000, 0.626100)">
                    <mask id="mask-4" fill="white">
                        <use xlink:href="#path-3"></use>
                    </mask>
                    <g id="Clip-2"></g>
                    <path d="M19.3568,12.7461 L23.4748,13.3701 C21.9968,7.6661 16.6588,2.6441 10.9598,1.7401 C7.7298,1.2291 4.6888,1.9461 2.3368,3.7651 L5.2268,7.1421 C6.8678,5.9231 8.9498,5.4401 11.1458,5.7801 C14.8168,6.3501 18.0718,9.1281 19.3568,12.7461 M24.2538,14.7001 C24.2248,14.7001 24.1938,14.6971 24.1638,14.6921 L18.8128,13.8821 C18.5848,13.8481 18.3968,13.6861 18.3278,13.4681 C17.2708,10.1011 14.3108,7.4901 10.9608,6.9711 C8.9368,6.6561 7.0368,7.1551 5.6108,8.3741 C5.5988,8.3861 5.5578,8.4261 5.5528,8.4301 C5.4318,8.5371 5.2708,8.5861 5.1118,8.5811 C4.9498,8.5701 4.7998,8.4951 4.6948,8.3721 L1.0238,4.0821 C0.8088,3.8311 0.8368,3.4521 1.0868,3.2351 L1.1548,3.1751 C3.8268,0.8861 7.3768,-0.0489 11.1488,0.5511 C17.7028,1.5911 23.5908,7.3661 24.8458,13.9851 C24.8818,14.1781 24.8228,14.3751 24.6878,14.5161 C24.5738,14.6341 24.4168,14.7001 24.2538,14.7001" id="Fill-1" fill="#CCCCCC" mask="url(#mask-4)"></path>
                </g>
                <g id="Group-6" transform="translate(15.000000, 17.626100)">
                    <mask id="mask-6" fill="white">
                        <use xlink:href="#path-5"></use>
                    </mask>
                    <g id="Clip-5"></g>
                    <path d="M1.5946,12 C1.2766,12 1.0106,11.75 0.9936,11.429 C0.9766,11.096 1.2326,10.813 1.5646,10.796 C6.4826,10.547 10.3276,7.427 11.5226,2.783 L7.2916,2.156 C6.2856,4.552 4.1726,6.211 1.5506,6.634 C1.2236,6.688 0.9126,6.464 0.8596,6.135 C0.8066,5.807 1.0306,5.498 1.3586,5.444 C3.7036,5.066 5.5636,3.515 6.3336,1.293 C6.4276,1.02 6.7006,0.853 6.9906,0.895 L12.3426,1.687 C12.5056,1.711 12.6526,1.802 12.7466,1.937 C12.8416,2.072 12.8766,2.24 12.8446,2.401 C11.7486,7.857 7.2396,11.714 1.6256,11.999 C1.6156,12 1.6046,12 1.5946,12" id="Fill-4" fill="#CCCCCC" mask="url(#mask-6)"></path>
                </g>
                <path d="M13.9281,29.4884 C13.8981,29.4884 13.8681,29.4864 13.8391,29.4814 C6.2081,28.3354 0.0001,21.0874 0.0001,13.3244 C0.0001,10.5824 0.7671,8.0314 2.2181,5.9474 C2.4071,5.6744 2.7831,5.6054 3.0561,5.7984 C3.3291,5.9874 3.3961,6.3624 3.2061,6.6354 C1.8961,8.5164 1.2041,10.8294 1.2041,13.3244 C1.2041,20.2784 6.5811,26.7874 13.3261,28.1684 L13.3261,24.1504 C8.7931,23.1604 5.1851,18.7614 5.1851,14.1004 C5.1851,12.6684 5.5301,11.2904 6.1801,10.1154 C6.3421,9.8234 6.7081,9.7184 6.9991,9.8804 C7.2901,10.0414 7.3951,10.4074 7.2341,10.6984 C6.6741,11.7104 6.3901,12.8534 6.3901,14.1004 C6.3901,18.3674 9.8141,22.3854 14.0231,23.0574 C14.3151,23.1044 14.5301,23.3564 14.5301,23.6524 L14.5301,28.8854 C14.5301,29.0614 14.4541,29.2274 14.3211,29.3424 C14.2111,29.4374 14.0721,29.4884 13.9281,29.4884" id="Fill-7" fill="#CCCCCC"></path>
            </g>
            <g id="Page-1" transform="translate(294.000000, 612.000000)" fill="#19C3ED">
                <path d="M2.3202,8.6158 L12.7942,2.3928 C14.0132,1.6688 15.3812,1.3058 16.7472,1.3058 C18.1142,1.3058 19.4812,1.6688 20.7012,2.3928 L31.1742,8.6158 C31.5442,8.8358 31.7642,9.2218 31.7642,9.6518 C31.7642,10.0818 31.5442,10.4688 31.1742,10.6868 L20.7012,16.9108 C18.2622,18.3588 15.2332,18.3588 12.7942,16.9108 L2.3202,10.6868 C1.9512,10.4688 1.7312,10.0818 1.7312,9.6518 C1.7312,9.2218 1.9512,8.8358 2.3202,8.6158 M1.6532,11.8098 L12.1272,18.0338 C13.5522,18.8808 15.1492,19.3038 16.7472,19.3038 C18.3452,19.3038 19.9432,18.8808 21.3682,18.0338 L31.8422,11.8098 C32.6112,11.3538 33.0702,10.5478 33.0702,9.6528 C33.0702,8.7578 32.6112,7.9508 31.8422,7.4928 L21.3682,1.2698 C18.5192,-0.4232 14.9782,-0.4232 12.1272,1.2698 L1.6532,7.4928 C0.8832,7.9508 0.4242,8.7578 0.4242,9.6528 C0.4242,10.5478 0.8832,11.3528 1.6532,11.8098" id="Fill-1"></path>
                <path d="M0.3197,15.9391 L12.1267,22.9541 C13.5517,23.8011 15.1497,24.2241 16.7477,24.2241 C18.3447,24.2241 19.9437,23.8001 21.3687,22.9541 L33.1757,15.9391 C33.4857,15.7541 33.5877,15.3531 33.4037,15.0431 C33.2187,14.7331 32.8177,14.6291 32.5077,14.8161 L20.7007,21.8311 C18.2617,23.2791 15.2327,23.2791 12.7947,21.8311 L0.9867,14.8161 C0.6757,14.6291 0.2767,14.7331 0.0917,15.0431 C-0.0923,15.3531 0.0087,15.7541 0.3197,15.9391" id="Fill-3"></path>
                <path d="M32.5082,19.736 L20.7012,26.752 C18.2622,28.2 15.2332,28.2 12.7942,26.752 L0.9872,19.736 C0.6762,19.55 0.2762,19.653 0.0912,19.964 C-0.0928,20.274 0.0092,20.674 0.3202,20.859 L12.1272,27.875 C13.5522,28.722 15.1492,29.145 16.7472,29.145 C18.3452,29.145 19.9432,28.721 21.3682,27.875 L33.1752,20.859 C33.4862,20.674 33.5882,20.274 33.4042,19.964 C33.2182,19.653 32.8172,19.55 32.5082,19.736" id="Fill-6"></path>
            </g>
            <path d="M159.421,631.741714 L155.289,631.139714 C154.448,631.017714 153.702,630.455714 153.451,629.643714 C153.188,628.793714 153.459,627.906714 154.099,627.354714 C154.493,627.012714 154.995,626.828714 155.511,626.828714 C155.614,626.828714 155.72,626.835714 155.824,626.850714 L159.497,627.385714 C159.627,627.404714 159.723,627.515714 159.723,627.646714 L159.723,631.479714 C159.723,631.640714 159.58,631.763714 159.421,631.741714 L159.421,631.741714 Z M159.16,638.403714 C158.802,638.714714 158.328,638.852714 157.86,638.783714 L134.695,635.411714 C133.9,635.295714 133.301,634.602714 133.301,633.800714 L133.301,617.875714 C133.301,617.402714 133.506,616.953714 133.864,616.644714 C134.222,616.335714 134.695,616.195714 135.164,616.263714 L158.329,619.636714 C159.13,619.753714 159.723,620.438714 159.723,621.248714 L159.723,623.700714 L159.723,625.797714 C159.723,625.958714 159.58,626.082714 159.421,626.058714 L156.012,625.562714 C155.015,625.415714 154.008,625.711714 153.247,626.370714 C152.248,627.233714 151.809,628.607714 152.181,629.939714 C152.557,631.285714 153.769,632.233714 155.152,632.434714 L159.497,633.067714 C159.627,633.086714 159.723,633.197714 159.723,633.329714 L159.723,637.172714 C159.723,637.645714 159.518,638.094714 159.16,638.403714 L159.16,638.403714 Z M157.659,612.327714 C158.173,612.241714 158.697,612.382714 159.096,612.719714 C159.494,613.055714 159.723,613.547714 159.723,614.069714 L159.723,618.374714 C159.723,618.568714 159.522,618.695714 159.348,618.609714 C159.091,618.482714 158.813,618.391714 158.518,618.348714 L153.015,617.548714 C152.717,617.504714 152.712,617.076714 153.009,617.025714 L157.162,616.318714 C157.517,616.258714 157.755,615.922714 157.694,615.567714 C157.634,615.213714 157.299,614.976714 156.944,615.035714 L147.224,616.691714 C147.196,616.696714 147.169,616.696714 147.142,616.692714 L140.647,615.747714 C140.349,615.703714 140.343,615.275714 140.64,615.224714 L157.659,612.327714 Z M159.936,611.723714 C159.242,611.138714 158.331,610.890714 157.442,611.044714 L134.474,614.954714 C134.4,614.967714 134.335,614.998714 134.273,615.032714 C133.813,615.137714 133.378,615.343714 133.013,615.659714 C132.369,616.217714 132,617.024714 132,617.875714 L132,633.800714 C132,635.244714 133.077,636.490714 134.507,636.699714 L157.672,640.071714 C157.814,640.093714 157.954,640.102714 158.096,640.102714 C158.794,640.102714 159.475,639.852714 160.011,639.387714 C160.655,638.831714 161.025,638.023714 161.025,637.172714 L161.025,632.537714 L161.025,626.854714 L161.025,623.700714 L161.025,621.248714 L161.025,614.069714 C161.025,613.163714 160.628,612.307714 159.936,611.723714 L159.936,611.723714 Z" id="Fill-1" fill="#CCCCCC"></path>
            <g id="Page-1" transform="translate(212.000000, 612.000000)" fill="#CCCCCC">
                <path d="M31.5635,25.6692 C31.5635,26.1332 31.3625,26.5732 31.0115,26.8772 C30.6605,27.1802 30.1945,27.3152 29.7365,27.2492 L2.6735,23.3102 C1.8945,23.1962 1.3065,22.5172 1.3065,21.7302 L1.3065,2.9032 C1.3065,2.4402 1.5075,1.9992 1.8585,1.6962 C2.1505,1.4422 2.5215,1.3062 2.9035,1.3062 C2.9805,1.3062 3.0565,1.3122 3.1335,1.3222 L30.1965,5.2622 C30.9755,5.3762 31.5635,6.0562 31.5635,6.8432 L31.5635,25.6692 Z M30.3845,3.9702 L3.3215,0.0302 C2.4865,-0.0908 1.6415,0.1552 1.0035,0.7082 C0.3655,1.2602 0.0005,2.0612 0.0005,2.9032 L0.0005,21.7302 C0.0005,23.1612 1.0685,24.3972 2.4855,24.6032 L29.5485,28.5422 C29.6885,28.5632 29.8285,28.5722 29.9675,28.5722 C30.6605,28.5722 31.3345,28.3242 31.8655,27.8652 C32.5035,27.3142 32.8705,26.5132 32.8705,25.6692 L32.8705,6.8432 C32.8705,5.4112 31.8015,4.1772 30.3845,3.9702 L30.3845,3.9702 Z" id="Fill-1"></path>
                <path d="M27.9073,16.4495 L5.1363,13.1345 C4.7803,13.0745 4.4483,13.3295 4.3963,13.6855 C4.3443,14.0435 4.5913,14.3755 4.9483,14.4275 L27.7193,17.7415 C27.7513,17.7475 27.7823,17.7495 27.8143,17.7495 C28.1333,17.7495 28.4123,17.5145 28.4603,17.1895 C28.5113,16.8335 28.2643,16.5015 27.9073,16.4495" id="Fill-4"></path>
                <path d="M6.2481,7.137 C6.5991,6.833 7.0641,6.701 7.5231,6.765 L9.1631,7.003 C9.9431,7.117 10.5301,7.797 10.5301,8.584 C10.5301,9.048 10.3291,9.489 9.9781,9.792 C9.6271,10.095 9.1631,10.23 8.7041,10.164 L7.0621,9.926 C6.2831,9.812 5.6961,9.132 5.6961,8.345 C5.6961,7.881 5.8971,7.441 6.2481,7.137 M6.8741,11.219 L6.8741,11.219 L8.5161,11.457 C8.6551,11.478 8.7951,11.488 8.9351,11.488 C9.6271,11.488 10.3021,11.24 10.8331,10.781 C11.4711,10.229 11.8371,9.428 11.8371,8.584 C11.8371,7.153 10.7691,5.917 9.3521,5.711 L7.7111,5.472 C6.8761,5.351 6.0311,5.597 5.3941,6.149 C4.7551,6.701 4.3891,7.501 4.3891,8.345 C4.3891,9.777 5.4571,11.012 6.8741,11.219" id="Fill-6"></path>
                <path d="M16.3799,19.011 L5.1509,17.375 C4.7949,17.317 4.4629,17.571 4.4099,17.928 C4.3579,18.284 4.6059,18.616 4.9629,18.668 L16.1919,20.303 C16.2239,20.309 16.2549,20.311 16.2869,20.311 C16.6059,20.311 16.8849,20.076 16.9319,19.751 C16.9839,19.394 16.7369,19.063 16.3799,19.011" id="Fill-8"></path>
            </g>
        </g>
    </g>
</svg>
